<?xml version="1.0" encoding="UTF-8" standalone="no"?>
<!DOCTYPE svg PUBLIC "-//W3C//DTD SVG 1.1//EN"
 "http://www.w3.org/Graphics/SVG/1.1/DTD/svg11.dtd">
<!-- Generated by graphviz version 9.0.0 (20230911.1827)
 -->
<!-- Title: G Pages: 1 -->
<svg width="1440pt" height="118pt"
 viewBox="0.00 0.00 1439.58 117.54" xmlns="http://www.w3.org/2000/svg" xmlns:xlink="http://www.w3.org/1999/xlink">
<g id="graph0" class="graph" transform="scale(1 1) rotate(0) translate(4 113.54)">
<title>G</title>
<polygon fill="white" stroke="none" points="-4,4 -4,-113.54 1435.58,-113.54 1435.58,4 -4,4"/>
<!-- event_subject_outbox -->
<g id="node1" class="node">
<title>event_subject_outbox</title>
<ellipse fill="none" stroke="black" cx="109.42" cy="-91.15" rx="109.42" ry="18.38"/>
<text text-anchor="middle" x="109.42" y="-86.85" font-family="Times,serif" font-size="14.00">event_subject_outbox</text>
</g>
<!-- outbox -->
<g id="node2" class="node">
<title>outbox</title>
<ellipse fill="none" stroke="black" cx="109.42" cy="-18.38" rx="42.6" ry="18.38"/>
<text text-anchor="middle" x="109.42" y="-14.08" font-family="Times,serif" font-size="14.00">outbox</text>
</g>
<!-- event_subject_outbox&#45;&gt;outbox -->
<g id="edge1" class="edge">
<title>event_subject_outbox&#45;&gt;outbox</title>
<path fill="none" stroke="black" d="M109.42,-72.3C109.42,-65.03 109.42,-56.45 109.42,-48.34"/>
<polygon fill="black" stroke="black" points="112.92,-48.51 109.42,-38.51 105.92,-48.51 112.92,-48.51"/>
</g>
<!-- event_subject_transaction_update_event -->
<g id="node3" class="node">
<title>event_subject_transaction_update_event</title>
<ellipse fill="none" stroke="black" cx="432.42" cy="-91.15" rx="195.34" ry="18.38"/>
<text text-anchor="middle" x="432.42" y="-86.85" font-family="Times,serif" font-size="14.00">event_subject_transaction_update_event</text>
</g>
<!-- update_statistic_after_transaction_update -->
<g id="node4" class="node">
<title>update_statistic_after_transaction_update</title>
<ellipse fill="none" stroke="black" cx="432.42" cy="-18.38" rx="201.7" ry="18.38"/>
<text text-anchor="middle" x="432.42" y="-14.08" font-family="Times,serif" font-size="14.00">update_statistic_after_transaction_update</text>
</g>
<!-- event_subject_transaction_update_event&#45;&gt;update_statistic_after_transaction_update -->
<g id="edge2" class="edge">
<title>event_subject_transaction_update_event&#45;&gt;update_statistic_after_transaction_update</title>
<path fill="none" stroke="black" d="M432.42,-72.3C432.42,-65.03 432.42,-56.45 432.42,-48.34"/>
<polygon fill="black" stroke="black" points="435.92,-48.51 432.42,-38.51 428.92,-48.51 435.92,-48.51"/>
</g>
<!-- event_subject_transaction_create_event -->
<g id="node5" class="node">
<title>event_subject_transaction_create_event</title>
<ellipse fill="none" stroke="black" cx="837.42" cy="-91.15" rx="192.16" ry="18.38"/>
<text text-anchor="middle" x="837.42" y="-86.85" font-family="Times,serif" font-size="14.00">event_subject_transaction_create_event</text>
</g>
<!-- task_subject_statisticUpdate -->
<g id="node6" class="node">
<title>task_subject_statisticUpdate</title>
<ellipse fill="none" stroke="black" cx="1038.42" cy="-18.38" rx="140.71" ry="18.38"/>
<text text-anchor="middle" x="1038.42" y="-14.08" font-family="Times,serif" font-size="14.00">task_subject_statisticUpdate</text>
</g>
<!-- event_subject_transaction_create_event&#45;&gt;task_subject_statisticUpdate -->
<g id="edge3" class="edge">
<title>event_subject_transaction_create_event&#45;&gt;task_subject_statisticUpdate</title>
<path fill="none" stroke="black" d="M886.34,-72.93C914.7,-62.95 950.57,-50.32 980.36,-39.83"/>
<polygon fill="black" stroke="black" points="981.33,-43.2 989.6,-36.58 979.01,-36.59 981.33,-43.2"/>
</g>
<!-- event_subject_transaction_delete_event -->
<g id="node7" class="node">
<title>event_subject_transaction_delete_event</title>
<ellipse fill="none" stroke="black" cx="1239.42" cy="-91.15" rx="192.16" ry="18.38"/>
<text text-anchor="middle" x="1239.42" y="-86.85" font-family="Times,serif" font-size="14.00">event_subject_transaction_delete_event</text>
</g>
<!-- event_subject_transaction_delete_event&#45;&gt;task_subject_statisticUpdate -->
<g id="edge4" class="edge">
<title>event_subject_transaction_delete_event&#45;&gt;task_subject_statisticUpdate</title>
<path fill="none" stroke="black" d="M1190.51,-72.93C1162.15,-62.95 1126.28,-50.32 1096.49,-39.83"/>
<polygon fill="black" stroke="black" points="1097.84,-36.59 1087.25,-36.58 1095.52,-43.2 1097.84,-36.59"/>
</g>
</g>
</svg>
