<?xml version="1.0" encoding="UTF-8" standalone="no"?>
<!DOCTYPE svg PUBLIC "-//W3C//DTD SVG 1.1//EN"
 "http://www.w3.org/Graphics/SVG/1.1/DTD/svg11.dtd">
<!-- Generated by graphviz version 9.0.0 (20230911.1827)
 -->
<!-- Title: G Pages: 1 -->
<svg width="1447pt" height="118pt"
 viewBox="0.00 0.00 1446.86 117.54" xmlns="http://www.w3.org/2000/svg" xmlns:xlink="http://www.w3.org/1999/xlink">
<g id="graph0" class="graph" transform="scale(1 1) rotate(0) translate(4 113.54)">
<title>G</title>
<polygon fill="white" stroke="none" points="-4,4 -4,-113.54 1442.86,-113.54 1442.86,4 -4,4"/>
<!-- event_subject_transaction_create_event -->
<g id="node1" class="node">
<title>event_subject_transaction_create_event</title>
<ellipse fill="none" stroke="black" cx="192.16" cy="-91.15" rx="192.16" ry="18.38"/>
<text text-anchor="middle" x="192.16" y="-86.85" font-family="Times,serif" font-size="14.00">event_subject_transaction_create_event</text>
</g>
<!-- task_subject_statisticUpdate -->
<g id="node2" class="node">
<title>task_subject_statisticUpdate</title>
<ellipse fill="none" stroke="black" cx="393.16" cy="-18.38" rx="140.71" ry="18.38"/>
<text text-anchor="middle" x="393.16" y="-14.08" font-family="Times,serif" font-size="14.00">task_subject_statisticUpdate</text>
</g>
<!-- event_subject_transaction_create_event&#45;&gt;task_subject_statisticUpdate -->
<g id="edge1" class="edge">
<title>event_subject_transaction_create_event&#45;&gt;task_subject_statisticUpdate</title>
<path fill="none" stroke="black" d="M241.07,-72.93C269.43,-62.95 305.3,-50.32 335.09,-39.83"/>
<polygon fill="black" stroke="black" points="336.06,-43.2 344.33,-36.58 333.74,-36.59 336.06,-43.2"/>
</g>
<!-- event_subject_transaction_delete_event -->
<g id="node3" class="node">
<title>event_subject_transaction_delete_event</title>
<ellipse fill="none" stroke="black" cx="594.16" cy="-91.15" rx="192.16" ry="18.38"/>
<text text-anchor="middle" x="594.16" y="-86.85" font-family="Times,serif" font-size="14.00">event_subject_transaction_delete_event</text>
</g>
<!-- event_subject_transaction_delete_event&#45;&gt;task_subject_statisticUpdate -->
<g id="edge2" class="edge">
<title>event_subject_transaction_delete_event&#45;&gt;task_subject_statisticUpdate</title>
<path fill="none" stroke="black" d="M545.24,-72.93C516.89,-62.95 481.01,-50.32 451.23,-39.83"/>
<polygon fill="black" stroke="black" points="452.58,-36.59 441.98,-36.58 450.25,-43.2 452.58,-36.59"/>
</g>
<!-- event_subject_outbox -->
<g id="node4" class="node">
<title>event_subject_outbox</title>
<ellipse fill="none" stroke="black" cx="914.16" cy="-91.15" rx="109.42" ry="18.38"/>
<text text-anchor="middle" x="914.16" y="-86.85" font-family="Times,serif" font-size="14.00">event_subject_outbox</text>
</g>
<!-- outbox -->
<g id="node5" class="node">
<title>outbox</title>
<ellipse fill="none" stroke="black" cx="914.16" cy="-18.38" rx="42.6" ry="18.38"/>
<text text-anchor="middle" x="914.16" y="-14.08" font-family="Times,serif" font-size="14.00">outbox</text>
</g>
<!-- event_subject_outbox&#45;&gt;outbox -->
<g id="edge3" class="edge">
<title>event_subject_outbox&#45;&gt;outbox</title>
<path fill="none" stroke="black" d="M914.16,-72.3C914.16,-65.03 914.16,-56.45 914.16,-48.34"/>
<polygon fill="black" stroke="black" points="917.66,-48.51 914.16,-38.51 910.66,-48.51 917.66,-48.51"/>
</g>
<!-- event_subject_transaction_update_event -->
<g id="node6" class="node">
<title>event_subject_transaction_update_event</title>
<ellipse fill="none" stroke="black" cx="1237.16" cy="-91.15" rx="195.34" ry="18.38"/>
<text text-anchor="middle" x="1237.16" y="-86.85" font-family="Times,serif" font-size="14.00">event_subject_transaction_update_event</text>
</g>
<!-- update_statistic_after_transaction_update -->
<g id="node7" class="node">
<title>update_statistic_after_transaction_update</title>
<ellipse fill="none" stroke="black" cx="1237.16" cy="-18.38" rx="201.7" ry="18.38"/>
<text text-anchor="middle" x="1237.16" y="-14.08" font-family="Times,serif" font-size="14.00">update_statistic_after_transaction_update</text>
</g>
<!-- event_subject_transaction_update_event&#45;&gt;update_statistic_after_transaction_update -->
<g id="edge4" class="edge">
<title>event_subject_transaction_update_event&#45;&gt;update_statistic_after_transaction_update</title>
<path fill="none" stroke="black" d="M1237.16,-72.3C1237.16,-65.03 1237.16,-56.45 1237.16,-48.34"/>
<polygon fill="black" stroke="black" points="1240.66,-48.51 1237.16,-38.51 1233.66,-48.51 1240.66,-48.51"/>
</g>
</g>
</svg>
